<svg width="70" height="13" viewBox="0 0 70 13" fill="none" xmlns="http://www.w3.org/2000/svg">
<path d="M0.409091 0.363636H2.09091L6.04545 10.0227H6.18182L10.1364 0.363636H11.8182V12H10.5V3.15909H10.3864L6.75 12H5.47727L1.84091 3.15909H1.72727V12H0.409091V0.363636ZM18.1207 12.1818C17.2798 12.1818 16.5545 11.9962 15.9446 11.625C15.3385 11.25 14.8707 10.7273 14.5412 10.0568C14.2154 9.38258 14.0526 8.59848 14.0526 7.70455C14.0526 6.81061 14.2154 6.02273 14.5412 5.34091C14.8707 4.6553 15.3291 4.12121 15.9162 3.73864C16.5071 3.35227 17.1965 3.15909 17.9844 3.15909C18.4389 3.15909 18.8878 3.23485 19.331 3.38636C19.7741 3.53788 20.1776 3.78409 20.5412 4.125C20.9048 4.46212 21.1946 4.90909 21.4105 5.46591C21.6264 6.02273 21.7344 6.70833 21.7344 7.52273V8.09091H15.0071V6.93182H20.3707C20.3707 6.43939 20.2723 6 20.0753 5.61364C19.8821 5.22727 19.6056 4.92235 19.2457 4.69886C18.8897 4.47538 18.4692 4.36364 17.9844 4.36364C17.4503 4.36364 16.9882 4.49621 16.598 4.76136C16.2116 5.02273 15.9143 5.36364 15.706 5.78409C15.4976 6.20455 15.3935 6.6553 15.3935 7.13636V7.90909C15.3935 8.56818 15.5071 9.12689 15.7344 9.58523C15.9654 10.0398 16.2855 10.3864 16.6946 10.625C17.1037 10.8598 17.5791 10.9773 18.1207 10.9773C18.473 10.9773 18.7912 10.928 19.0753 10.8295C19.3632 10.7273 19.6113 10.5758 19.8196 10.375C20.0279 10.1705 20.1889 9.91667 20.3026 9.61364L21.598 9.97727C21.4616 10.4167 21.2325 10.803 20.9105 11.1364C20.5885 11.4659 20.1908 11.7235 19.7173 11.9091C19.2438 12.0909 18.7116 12.1818 18.1207 12.1818ZM23.7741 12V3.27273H25.0696V4.63636H25.1832C25.3651 4.17045 25.6586 3.80871 26.0639 3.55114C26.4692 3.28977 26.956 3.15909 27.5241 3.15909C28.0999 3.15909 28.5791 3.28977 28.9616 3.55114C29.348 3.80871 29.6491 4.17045 29.8651 4.63636H29.956C30.1795 4.18561 30.5147 3.82765 30.9616 3.5625C31.4086 3.29356 31.9446 3.15909 32.5696 3.15909C33.3499 3.15909 33.9882 3.40341 34.4844 3.89205C34.9806 4.37689 35.2287 5.13258 35.2287 6.15909V12H33.8878V6.15909C33.8878 5.51515 33.7116 5.05492 33.3594 4.77841C33.0071 4.50189 32.5923 4.36364 32.1151 4.36364C31.5014 4.36364 31.026 4.54924 30.6889 4.92045C30.3518 5.28788 30.1832 5.75379 30.1832 6.31818V12H28.8196V6.02273C28.8196 5.52652 28.6586 5.12689 28.3366 4.82386C28.0147 4.51705 27.5999 4.36364 27.0923 4.36364C26.7438 4.36364 26.4181 4.45644 26.1151 4.64205C25.8158 4.82765 25.5734 5.08523 25.3878 5.41477C25.206 5.74053 25.1151 6.11742 25.1151 6.54545V12H23.7741ZM37.8622 12V0.363636H39.2031V4.65909H39.3168C39.4152 4.50758 39.5516 4.31439 39.7259 4.07955C39.9039 3.84091 40.1577 3.62879 40.4872 3.44318C40.8205 3.25379 41.2713 3.15909 41.8395 3.15909C42.5743 3.15909 43.2221 3.3428 43.7827 3.71023C44.3433 4.07765 44.7808 4.59848 45.0952 5.27273C45.4096 5.94697 45.5668 6.74242 45.5668 7.65909C45.5668 8.58333 45.4096 9.38447 45.0952 10.0625C44.7808 10.7367 44.3452 11.2595 43.7884 11.6307C43.2315 11.9981 42.5895 12.1818 41.8622 12.1818C41.3016 12.1818 40.8527 12.089 40.5156 11.9034C40.1785 11.714 39.919 11.5 39.7372 11.2614C39.5554 11.0189 39.4152 10.8182 39.3168 10.6591H39.1577V12H37.8622ZM39.1804 7.63636C39.1804 8.29545 39.277 8.87689 39.4702 9.38068C39.6634 9.88068 39.9455 10.2727 40.3168 10.5568C40.688 10.8371 41.1425 10.9773 41.6804 10.9773C42.241 10.9773 42.7088 10.8295 43.0838 10.5341C43.4626 10.2348 43.7467 9.83333 43.9361 9.32955C44.1293 8.82197 44.2259 8.25758 44.2259 7.63636C44.2259 7.02273 44.1312 6.4697 43.9418 5.97727C43.7562 5.48106 43.474 5.08902 43.0952 4.80114C42.7202 4.50947 42.2486 4.36364 41.6804 4.36364C41.1349 4.36364 40.6766 4.50189 40.3054 4.77841C39.9342 5.05114 39.6539 5.43371 39.4645 5.92614C39.2751 6.41477 39.1804 6.98485 39.1804 7.63636ZM51.277 12.1818C50.4361 12.1818 49.7107 11.9962 49.1009 11.625C48.4948 11.25 48.027 10.7273 47.6974 10.0568C47.3717 9.38258 47.2088 8.59848 47.2088 7.70455C47.2088 6.81061 47.3717 6.02273 47.6974 5.34091C48.027 4.6553 48.4853 4.12121 49.0724 3.73864C49.6634 3.35227 50.3527 3.15909 51.1406 3.15909C51.5952 3.15909 52.044 3.23485 52.4872 3.38636C52.9304 3.53788 53.3338 3.78409 53.6974 4.125C54.0611 4.46212 54.3509 4.90909 54.5668 5.46591C54.7827 6.02273 54.8906 6.70833 54.8906 7.52273V8.09091H48.1634V6.93182H53.527C53.527 6.43939 53.4285 6 53.2315 5.61364C53.0384 5.22727 52.7618 4.92235 52.402 4.69886C52.0459 4.47538 51.6255 4.36364 51.1406 4.36364C50.6065 4.36364 50.1444 4.49621 49.7543 4.76136C49.3679 5.02273 49.0705 5.36364 48.8622 5.78409C48.6539 6.20455 48.5497 6.6553 48.5497 7.13636V7.90909C48.5497 8.56818 48.6634 9.12689 48.8906 9.58523C49.1217 10.0398 49.4418 10.3864 49.8509 10.625C50.2599 10.8598 50.7353 10.9773 51.277 10.9773C51.6293 10.9773 51.9474 10.928 52.2315 10.8295C52.5194 10.7273 52.7675 10.5758 52.9759 10.375C53.1842 10.1705 53.3452 9.91667 53.4588 9.61364L54.7543 9.97727C54.6179 10.4167 54.3887 10.803 54.0668 11.1364C53.7448 11.4659 53.3471 11.7235 52.8736 11.9091C52.4001 12.0909 51.8679 12.1818 51.277 12.1818ZM56.9304 12V3.27273H58.2259V4.59091H58.3168C58.4759 4.15909 58.7637 3.80871 59.1804 3.53977C59.5971 3.27083 60.0668 3.13636 60.5895 3.13636C60.688 3.13636 60.8111 3.13826 60.9588 3.14205C61.1065 3.14583 61.2183 3.15152 61.294 3.15909V4.52273C61.2486 4.51136 61.1444 4.49432 60.9815 4.47159C60.8224 4.44508 60.6539 4.43182 60.4759 4.43182C60.0516 4.43182 59.6728 4.52083 59.3395 4.69886C59.0099 4.87311 58.7486 5.11553 58.5554 5.42614C58.366 5.73295 58.2713 6.08333 58.2713 6.47727V12H56.9304ZM69.0653 5.22727L67.8608 5.56818C67.785 5.36742 67.6733 5.17235 67.5256 4.98295C67.3816 4.78977 67.1847 4.63068 66.9347 4.50568C66.6847 4.38068 66.3646 4.31818 65.9744 4.31818C65.4403 4.31818 64.9953 4.44129 64.6392 4.6875C64.2869 4.92992 64.1108 5.23864 64.1108 5.61364C64.1108 5.94697 64.232 6.21023 64.4744 6.40341C64.7169 6.59659 65.0956 6.75758 65.6108 6.88636L66.9062 7.20455C67.6866 7.39394 68.268 7.68371 68.6506 8.07386C69.0331 8.46023 69.2244 8.95833 69.2244 9.56818C69.2244 10.0682 69.0805 10.5152 68.7926 10.9091C68.5085 11.303 68.1108 11.6136 67.5994 11.8409C67.0881 12.0682 66.4934 12.1818 65.8153 12.1818C64.9252 12.1818 64.1884 11.9886 63.6051 11.6023C63.0218 11.2159 62.6525 10.6515 62.4972 9.90909L63.7699 9.59091C63.8911 10.0606 64.1203 10.4129 64.4574 10.6477C64.7983 10.8826 65.2434 11 65.7926 11C66.4176 11 66.9138 10.8674 67.2812 10.6023C67.6525 10.3333 67.8381 10.0114 67.8381 9.63636C67.8381 9.33333 67.732 9.07955 67.5199 8.875C67.3078 8.66667 66.982 8.51136 66.5426 8.40909L65.0881 8.06818C64.2888 7.87879 63.7017 7.58523 63.3267 7.1875C62.9555 6.78598 62.7699 6.28409 62.7699 5.68182C62.7699 5.18939 62.9081 4.75379 63.1847 4.375C63.465 3.99621 63.8456 3.69886 64.3267 3.48295C64.8116 3.26705 65.3608 3.15909 65.9744 3.15909C66.8381 3.15909 67.5161 3.34848 68.0085 3.72727C68.5047 4.10606 68.857 4.60606 69.0653 5.22727Z" fill="#717171"/>
</svg>
